<?xml version="1.0" encoding="iso-8859-1"?>
<!-- Generator: Adobe Illustrator 19.0.0, SVG Export Plug-In . SVG Version: 6.00 Build 0)  -->
<svg xmlns="http://www.w3.org/2000/svg" xmlns:xlink="http://www.w3.org/1999/xlink" version="1.1" id="Capa_1" x="0px" y="0px" viewBox="0 0 354 354" style="enable-background:new 0 0 354 354;" xml:space="preserve" width="512px" height="512px">
<g>
	<g>
		<path d="M303.6,118.8V52c0-38.4-26.8-52-52-52H102C76.8,0,50,13.6,50,52v66.8C31.6,123.6,18,140,18,160v107.2    c0,31.6,21.2,44,42,45.2v27.2c0,8,6.4,14.4,14.4,14.4h14.8c8,0,14.4-6.4,14.4-14.4v-27.2h146.8v27.2c0,8,6.4,14.4,14.4,14.4h14.8    c8,0,14.4-6.4,14.4-14.4v-27.2c30.8-1.6,42-24,42-45.2V159.6C335.2,140,321.6,123.2,303.6,118.8z M64.4,52c0-32.8,23.6-38,37.6-38    h149.6c14,0,37.6,4.8,37.6,37.6v65.6c-21.6,2-38.8,20-38.8,42.4v10H103.2v-10c0-22.4-17.2-40.4-38.8-42.4V52z M250,184v49.6H103.2    V184H250z M89.2,339.6H74.4v-27.2h14.8V339.6z M279.2,339.6h-14.8v-27.2h14.8V339.6z M321.6,267.2h-0.4c0,14-5.2,31.2-31.2,31.2    h-10.8h-14.8H89.2H74.4H63.6c-14,0-31.2-5.2-31.2-31.2V159.6c0-15.6,12.8-28.4,28.4-28.4s28.4,12.8,28.4,28.4v81.2    c0,4,3.2,7.2,7.2,7.2h161.2c4,0,7.2-3.2,7.2-7.2v-81.2c0-15.6,12.8-28.4,28.4-28.4c15.6,0,28.4,12.8,28.4,28.4V267.2z" fill="#FFFFFF"/>
	</g>
</g>
<g>
</g>
<g>
</g>
<g>
</g>
<g>
</g>
<g>
</g>
<g>
</g>
<g>
</g>
<g>
</g>
<g>
</g>
<g>
</g>
<g>
</g>
<g>
</g>
<g>
</g>
<g>
</g>
<g>
</g>
</svg>
