<?xml version="1.0" encoding="iso-8859-1"?>
<!-- Generator: Adobe Illustrator 19.0.0, SVG Export Plug-In . SVG Version: 6.00 Build 0)  -->
<svg xmlns="http://www.w3.org/2000/svg" xmlns:xlink="http://www.w3.org/1999/xlink" version="1.1" id="Layer_1" x="0px" y="0px" viewBox="0 0 310.023 310.023" style="enable-background:new 0 0 310.023 310.023;" xml:space="preserve" width="512px" height="512px">
<g id="XMLID_792_">
	<path id="XMLID_793_" d="M239.741,102.348c-39.51,0-58.267,20.938-67.045,38.503c-5.865,11.738-8.088,23.385-8.93,30.63   c-1.781-7.023-4.973-14.658-10.674-20.684c-2.858-3.021-6.118-5.416-9.761-7.179c8.122-5.45,16.12-15.527,16.12-34.078   c0-17.188-5.884-31.373-17.015-41.021c-10.191-8.832-24.242-13.501-40.636-13.501H5c-2.762,0-5,2.239-5,5v186.042   c0,2.761,2.238,5,5,5h96.747c0.12,0.002,0.358,0.007,0.703,0.007c0.001,0,0,0,0.001,0c4.274,0,19.349-0.579,33.906-8.027   c12.02-6.148,26.085-18.427,29.008-42.535c2.342,10.313,7.12,22.569,16.785,32.925c13.304,14.255,32.637,21.495,57.463,21.52   c0.358,0.017,1.283,0.053,2.673,0.053c6.268,0,22.436-0.753,37.141-7.729c18.947-8.989,28.963-25.176,28.963-46.812   c0-2.762-2.238-5-5-5h-32.734c-1.372,0-2.686,0.53-3.63,1.526c-0.944,0.996-1.439,2.303-1.366,3.673   c0.005,0.185,0.07,4.586-3.699,8.451c-4.064,4.168-11.372,6.371-21.131,6.371c-0.099,0-0.217,0.004-0.316,0.01   c-0.065,0.004-0.358,0.018-0.832,0.018c-2.042,0-9.186-0.288-15.422-3.996c-6.255-3.72-9.911-9.903-10.904-18.418h91.14   c2.511,0,4.633-1.862,4.958-4.352c0.213-1.634,4.968-40.298-17.232-65.586C280.097,109.35,262.44,102.348,239.741,102.348z    M214.211,158.28c2.653-7.219,9.506-18.679,26.259-18.679c7.065,0,12.627,1.989,16.529,5.912c3.861,3.882,5.541,9.025,6.271,12.767   H214.211z M52.663,168.28h49.165c1.495,0.011,14.604,0.683,14.604,20.546c0,12.991-5.367,18.907-17.402,19.177H52.663V168.28z    M98.442,129.591H52.663V98.071l49.038-0.002c1.379,0.059,8.259,1.029,8.259,14.364C109.96,129.591,103.841,129.591,98.442,129.591   z" fill="#FFFFFF"/>
	<path id="XMLID_800_" d="M199.706,95.87h76.763c2.762,0,5-2.239,5-5V67.967c0-2.761-2.238-5-5-5h-76.763c-2.762,0-5,2.239-5,5   V90.87C194.706,93.631,196.945,95.87,199.706,95.87z" fill="#FFFFFF"/>
</g>
<g>
</g>
<g>
</g>
<g>
</g>
<g>
</g>
<g>
</g>
<g>
</g>
<g>
</g>
<g>
</g>
<g>
</g>
<g>
</g>
<g>
</g>
<g>
</g>
<g>
</g>
<g>
</g>
<g>
</g>
</svg>
