<?xml version="1.0" encoding="iso-8859-1"?>
<!-- Generator: Adobe Illustrator 19.0.0, SVG Export Plug-In . SVG Version: 6.00 Build 0)  -->
<svg xmlns="http://www.w3.org/2000/svg" xmlns:xlink="http://www.w3.org/1999/xlink" version="1.1" id="Layer_1" x="0px" y="0px" viewBox="0 0 512 512" style="enable-background:new 0 0 512 512;" xml:space="preserve" width="512px" height="512px">
<g>
	<g>
		<path d="M256,0C115.2,0,0,115.2,0,256s115.2,256,256,256s256-115.2,256-256S396.8,0,256,0z M205.653,44.373    C221.867,40.96,238.933,38.4,256,38.4c52.907,0,104.107,19.627,144.213,54.613l7.68,6.827l-0.853,0.853    c-4.267,3.413-8.533,6.827-11.947,11.093c-25.6,27.307-61.44,50.347-105.813,67.413l-7.68,3.413l-3.413-6.827    c-39.253-72.533-76.8-116.907-77.653-117.76l-9.387-10.24L205.653,44.373z M43.52,210.773    c13.653-64.853,58.027-122.027,118.613-151.04l5.973-2.56l4.267,5.12c0,0.853,37.547,47.787,76.8,120.32l5.12,9.387l-10.24,2.56    c-87.04,24.747-171.52,26.453-189.44,26.453c-1.707,0-2.56,0-3.413,0H40.96L43.52,210.773z M102.4,409.6l-7.68-8.533    C58.88,361.813,38.4,309.76,38.4,256c0-1.707,0-3.413,0-5.973v-8.533h8.533c78.507,0.853,149.333-9.387,209.92-28.16l6.827-2.56    l3.413,6.827c5.973,11.947,11.093,23.893,17.067,34.987l4.267,8.533l-9.387,3.413c-71.68,23.04-132.267,71.68-170.667,135.68    L102.4,409.6z M338.773,456.533C312.32,467.627,284.16,472.747,256,472.747c-47.787,0-93.867-15.36-131.413-44.373l-5.973-4.267    l3.413-6.827c36.693-64.853,96.427-112.64,167.253-134.827l7.68-2.56l2.56,7.68c22.187,55.467,37.547,109.227,44.373,159.573    l0.853,6.827L338.773,456.533z M470.187,293.547c-10.24,58.027-44.373,110.08-93.013,143.36l-11.093,7.68l-1.707-13.653    c-6.827-48.64-18.773-97.28-36.693-146.773l-3.413-10.24l10.24-1.707c43.52-5.973,88.747-2.56,130.56,11.093l6.827,2.56    L470.187,293.547z M462.507,260.267c-45.227-12.8-93.867-15.36-139.947-7.68l-6.827,2.56l-2.56-5.973    c-5.12-12.8-11.093-26.453-17.92-39.253l-4.267-7.68l8.533-3.413c81.067-35.84,120.32-86.187,120.32-86.187l5.12,5.973    c30.72,38.4,47.787,84.48,48.64,133.973v11.093L462.507,260.267z" fill="#FFFFFF"/>
	</g>
</g>
<g>
</g>
<g>
</g>
<g>
</g>
<g>
</g>
<g>
</g>
<g>
</g>
<g>
</g>
<g>
</g>
<g>
</g>
<g>
</g>
<g>
</g>
<g>
</g>
<g>
</g>
<g>
</g>
<g>
</g>
</svg>
