<?xml version="1.0" encoding="iso-8859-1"?>
<!-- Generator: Adobe Illustrator 19.0.0, SVG Export Plug-In . SVG Version: 6.00 Build 0)  -->
<svg xmlns="http://www.w3.org/2000/svg" xmlns:xlink="http://www.w3.org/1999/xlink" version="1.1" id="Capa_1" x="0px" y="0px" viewBox="0 0 462.4 462.4" style="enable-background:new 0 0 462.4 462.4;" xml:space="preserve" width="512px" height="512px">
<g>
	<g>
		<path d="M230.8,0c-52,0-94.4,60.8-94.4,136s42.4,136,94.4,136s94.4-60.8,94.4-136S282.8,0,230.8,0z M230.8,256.8    c-43.2,0-78.4-53.6-78.4-120s35.2-120,78.4-120s78.4,53.6,78.4,120S274,256.8,230.8,256.8z" fill="#FFFFFF"/>
	</g>
</g>
<g>
	<g>
		<path d="M369.2,284h-276c-4.8,0-8,3.2-8,8v128.8c0,4.8,3.2,8.8,8,8.8h8v24.8c0,4.8,3.2,8,8,8h40c4.8,0,8-3.2,8-8v-24.8h148v24.8    c0,4.8,3.2,8,8,8h40c4.8,0,8-3.2,8-8v-24.8h8c4.8,0,8-3.2,8-8V292C377.2,287.2,374,284,369.2,284z M141.2,445.6h-24v-16.8h24    V445.6z M344.4,445.6h-24v-16.8h24V445.6z M361.2,412.8h-8h-40h-164h-40h-8V300h260V412.8z" fill="#FFFFFF"/>
	</g>
</g>
<g>
	<g>
		<path d="M332.4,316H129.2c-4.8,0-8,3.2-8,8v65.6c0,4.8,3.2,8,8,8h203.2c4.8,0,8-3.2,8-8V324C340.4,319.2,337.2,316,332.4,316z     M323.6,381.6H137.2V332h72v14.4h42.4V332h72V381.6z" fill="#FFFFFF"/>
	</g>
</g>
<g>
	<g>
		<path d="M254.8,76.8c-3.2-3.2-8-3.2-11.2,0l-47.2,50.4c-3.2,3.2-3.2,8,0,11.2c1.6,1.6,4,2.4,5.6,2.4c2.4,0,4-0.8,5.6-2.4L254.8,88    C258,84.8,258,80,254.8,76.8z" fill="#FFFFFF"/>
	</g>
</g>
<g>
	<g>
		<path d="M262,142.4c-3.2-3.2-8.8-3.2-11.2,0l-47.2,50.4c-3.2,3.2-3.2,8,0,11.2c1.6,1.6,3.2,2.4,5.6,2.4c2.4,0,4-0.8,5.6-2.4    l47.2-50.4C265.2,150.4,265.2,145.6,262,142.4z" fill="#FFFFFF"/>
	</g>
</g>
<g>
</g>
<g>
</g>
<g>
</g>
<g>
</g>
<g>
</g>
<g>
</g>
<g>
</g>
<g>
</g>
<g>
</g>
<g>
</g>
<g>
</g>
<g>
</g>
<g>
</g>
<g>
</g>
<g>
</g>
</svg>
