<?xml version="1.0" encoding="iso-8859-1"?>
<!-- Generator: Adobe Illustrator 19.0.0, SVG Export Plug-In . SVG Version: 6.00 Build 0)  -->
<svg xmlns="http://www.w3.org/2000/svg" xmlns:xlink="http://www.w3.org/1999/xlink" version="1.1" id="Capa_1" x="0px" y="0px" viewBox="0 0 352.4 352.4" style="enable-background:new 0 0 352.4 352.4;" xml:space="preserve" width="512px" height="512px">
<g>
	<g>
		<path d="M337.6,161.4h-176c0-0.4,0-0.4,0-0.8v-16.4c0-0.4,0-0.4,0-0.8h57.6c8.4,0,14.8-6.8,14.8-14.8v-96    c0-8.4-6.8-14.8-14.8-14.8H52.4c-8.4,0-14.8,6.8-14.8,14.8v96c0,8.4,6.8,14.8,14.8,14.8h57.2c0,0.4,0,0.4,0,0.8V161    c0,0.4,0,0.4,0,0.8H14.8c-8.4,0-14.8,6.8-14.8,14.8v9.6c0,8,6.8,14.8,14.8,14.8h19.6v126.4c0,4,3.2,7.2,7.2,7.2s7.2-3.2,7.2-7.2    V201h141.6c0,0.4,0,0.4,0,0.8v118c0,8.4,6.8,14.8,14.8,14.8h103.6c8.4,0,14.8-6.8,14.8-14.8v-118c0-0.4,0-0.4,0-0.8h14    c8.4,0,14.8-6.8,14.8-14.8v-10C352.4,167.8,345.6,161.4,337.6,161.4z M52.4,129.4c-0.4-0.4-0.8-0.4-0.8-0.8v-96    c0-0.4,0.4-0.8,0.8-0.8h166.8c0.4,0,0.8,0.4,0.8,0.8v96c0,0.4-0.4,0.8-0.8,0.8h-72.4h-22.4H52.4z M147.6,144.2V161    c0,0.4-0.4,0.8-0.8,0.8h-22.4c-0.4-0.4-0.8-0.8-0.8-1.2v-16.4c0-0.4,0.4-0.8,0.8-0.8h22.4C147.2,143.4,147.6,143.8,147.6,144.2z     M310,319.8c0,0.4-0.4,0.8-0.8,0.8H205.6c-0.4,0-0.8-0.4-0.8-0.8v-30.4H310V319.8z M310,275.4H204.8v-32.8H310V275.4z M310,228.2    H204.8v-26.4c0-0.4,0.4-0.8,0.8-0.8h103.6c0.4,0,0.8,0.4,0.8,0.8V228.2z M338.4,185.8c0,0.4-0.4,0.8-0.8,0.8h-28.8H205.6H14.8    c-0.4,0-0.8-0.4-0.8-0.8v-9.6h0.4c0-0.4,0.4-0.8,0.8-0.8h109.2h22.4h190.8c0.4,0,0.8,0.4,0.8,0.8V185.8z" fill="#FFFFFF"/>
	</g>
</g>
<g>
	<g>
		<path d="M267.6,206.6h-20.8c-4,0-7.2,3.2-7.2,7.2s3.2,7.2,7.2,7.2h20.8c4,0,7.2-3.2,7.2-7.2S271.6,206.6,267.6,206.6z" fill="#FFFFFF"/>
	</g>
</g>
<g>
	<g>
		<path d="M267.6,251.8h-20.8c-4,0-7.2,3.2-7.2,7.2c0,4,3.2,7.2,7.2,7.2h20.8c4,0,7.2-3.2,7.2-7.2    C274.8,255,271.6,251.8,267.6,251.8z" fill="#FFFFFF"/>
	</g>
</g>
<g>
	<g>
		<path d="M267.6,298.2h-20.8c-4,0-7.2,3.2-7.2,7.2s3.2,7.2,7.2,7.2h20.8c4,0,7.2-3.2,7.2-7.2S271.6,298.2,267.6,298.2z" fill="#FFFFFF"/>
	</g>
</g>
<g>
</g>
<g>
</g>
<g>
</g>
<g>
</g>
<g>
</g>
<g>
</g>
<g>
</g>
<g>
</g>
<g>
</g>
<g>
</g>
<g>
</g>
<g>
</g>
<g>
</g>
<g>
</g>
<g>
</g>
</svg>
