<?xml version="1.0" encoding="iso-8859-1"?>
<!-- Generator: Adobe Illustrator 19.0.0, SVG Export Plug-In . SVG Version: 6.00 Build 0)  -->
<svg version="1.1" id="Capa_1" xmlns="http://www.w3.org/2000/svg" xmlns:xlink="http://www.w3.org/1999/xlink" x="0px" y="0px"
	 viewBox="0 0 512 512" style="enable-background:new 0 0 512 512;" xml:space="preserve">
<g>
	<g>
		<path d="M377,0H135C60.561,0,0,60.561,0,135v30c0,24.813,20.187,45,45,45h60c24.813,0,45-20.187,45-45v-30c0-8.271,6.729-15,15-15
			h182c8.271,0,15,6.729,15,15v30c0,24.813,20.187,45,45,45h60c24.813,0,45-20.187,45-45v-30C512,60.561,451.439,0,377,0z M120,165
			c0,8.271-6.729,15-15,15H45c-8.271,0-15-6.729-15-15v-15h90V165z M347,90H165c-19.555,0-36.228,12.542-42.42,30H31.076
			C38.377,69.184,82.196,30,135,30h242c52.805,0,96.623,39.184,103.924,90H389.42C383.228,102.542,366.555,90,347,90z M482,165
			c0,8.271-6.729,15-15,15h-60c-8.271,0-15-6.729-15-15v-15h90V165z"/>
	</g>
</g>
<g>
	<g>
		<path d="M476.273,420.235c-81.711-198.652-76.809-186.951-77.671-188.388C390.516,218.372,375.73,210,360.015,210H332v-15
			c0-24.813-20.187-45-45-45h-62c-24.813,0-45,20.187-45,45v15h-28.014c-19.429,0-35.227,13.231-39.597,23.859L35.748,420.183
			C31.934,429.356,30,439.044,30,448.977V467c0,24.813,20.187,45,45,45h362c24.813,0,45-20.187,45-45v-18.023
			C482,439.042,480.065,429.353,476.273,420.235z M210,195c0-8.271,6.729-15,15-15h62c8.271,0,15,6.729,15,15v15h-92V195z M452,467
			c0,8.271-6.729,15-15,15H75c-8.271,0-15-6.729-15-15v-18.023c0-5.96,1.16-11.773,3.47-17.33l76.159-185.149
			c2.778-4.03,7.43-6.498,12.357-6.498c4.612,0,196.647,0,208.029,0c4.926,0,9.578,2.468,12.356,6.498l76.181,185.203
			c2.288,5.503,3.448,11.315,3.448,17.276V467z"/>
	</g>
</g>
<g>
	<g>
		<path d="M257,270c-49.626,0-90,40.374-90,90c0,49.626,40.374,90,90,90c49.626,0,90-40.374,90-90C347,310.374,306.626,270,257,270z
			 M257,420c-33.084,0-60-26.916-60-60s26.916-60,60-60s60,26.916,60,60S290.084,420,257,420z"/>
	</g>
</g>
<g>
	<g>
		<path d="M257,330c-16.542,0-30,13.458-30,30s13.458,30,30,30s30-13.458,30-30S273.542,330,257,330z"/>
	</g>
</g>
<g>
</g>
<g>
</g>
<g>
</g>
<g>
</g>
<g>
</g>
<g>
</g>
<g>
</g>
<g>
</g>
<g>
</g>
<g>
</g>
<g>
</g>
<g>
</g>
<g>
</g>
<g>
</g>
<g>
</g>
</svg>
