<?xml version="1.0" encoding="iso-8859-1"?>
<!-- Generator: Adobe Illustrator 19.0.0, SVG Export Plug-In . SVG Version: 6.00 Build 0)  -->
<svg xmlns="http://www.w3.org/2000/svg" xmlns:xlink="http://www.w3.org/1999/xlink" version="1.1" id="Capa_1" x="0px" y="0px" viewBox="0 0 435.2 435.2" style="enable-background:new 0 0 435.2 435.2;" xml:space="preserve" width="512px" height="512px">
<g>
	<g>
		<path d="M379.2,0H56c-4.8,0-8,3.2-8,8v297.6v60.8v60.8c0,4.8,3.2,8,8,8h323.2c4.8,0,8-3.2,8-8v-60.8v-60.8V8    C387.2,3.2,383.2,0,379.2,0z M224.8,16h145.6v281.6H224.8V16z M224.8,313.6H280v12.8h33.6v-12.8h56.8v44.8H224.8V313.6z     M208.8,419.2H64v-44.8h56.8v12.8h33.6v-12.8h54.4V419.2z M208.8,358.4H64v-44.8h56.8v12.8h33.6v-12.8h54.4V358.4z M208.8,297.6    H64V16h144.8V297.6z M224.8,419.2v-44.8H280v12.8h33.6v-12.8h56.8v44.8H224.8z" fill="#FFFFFF"/>
	</g>
</g>
<g>
	<g>
		<path d="M184,137.6c-4.8,0-8,3.2-8,8v48.8c0,4.8,3.2,8,8,8c4.8,0,8-3.2,8-8v-48.8C192,141.6,188,137.6,184,137.6z" fill="#FFFFFF"/>
	</g>
</g>
<g>
	<g>
		<path d="M250.4,137.6c-4.8,0-8,3.2-8,8v48.8c0,4.8,4,8,8,8c4.8,0,8-3.2,8-8v-48.8C258.4,140.8,255.2,137.6,250.4,137.6z" fill="#FFFFFF"/>
	</g>
</g>
<g>
</g>
<g>
</g>
<g>
</g>
<g>
</g>
<g>
</g>
<g>
</g>
<g>
</g>
<g>
</g>
<g>
</g>
<g>
</g>
<g>
</g>
<g>
</g>
<g>
</g>
<g>
</g>
<g>
</g>
</svg>
